<svg width="20" height="20" viewBox="0 0 20 20" fill="none" xmlns="http://www.w3.org/2000/svg">
<path d="M10 1.87012C8.39303 1.87012 6.82214 2.34664 5.486 3.23943C4.14985 4.13221 3.10844 5.40116 2.49348 6.88581C1.87852 8.37046 1.71762 10.0041 2.03112 11.5802C2.34463 13.1563 3.11846 14.6041 4.25476 15.7404C5.39106 16.8767 6.8388 17.6505 8.4149 17.964C9.99099 18.2775 11.6247 18.1166 13.1093 17.5016C14.594 16.8867 15.8629 15.8453 16.7557 14.5091C17.6485 13.173 18.125 11.6021 18.125 9.99512C18.1227 7.84093 17.266 5.77563 15.7427 4.25239C14.2195 2.72915 12.1542 1.87239 10 1.87012ZM10 16.8701C8.64026 16.8701 7.31105 16.4669 6.18046 15.7115C5.04987 14.956 4.16868 13.8823 3.64833 12.6261C3.12798 11.3698 2.99183 9.98749 3.2571 8.65387C3.52238 7.32025 4.17716 6.09524 5.13864 5.13376C6.10013 4.17227 7.32514 3.51749 8.65876 3.25222C9.99238 2.98694 11.3747 3.12309 12.631 3.64345C13.8872 4.1638 14.9609 5.04498 15.7164 6.17557C16.4718 7.30616 16.875 8.63537 16.875 9.99512C16.8729 11.8178 16.1479 13.5653 14.8591 14.8542C13.5702 16.1431 11.8227 16.868 10 16.8701ZM6.25 8.43262C6.25 8.2472 6.30499 8.06594 6.408 7.91177C6.51101 7.7576 6.65743 7.63744 6.82874 7.56648C7.00004 7.49552 7.18854 7.47696 7.3704 7.51313C7.55226 7.5493 7.7193 7.63859 7.85042 7.7697C7.98153 7.90082 8.07082 8.06786 8.10699 8.24972C8.14316 8.43158 8.1246 8.62008 8.05364 8.79138C7.98268 8.96269 7.86252 9.10911 7.70835 9.21212C7.55418 9.31513 7.37292 9.37012 7.1875 9.37012C6.93886 9.37012 6.70041 9.27135 6.52459 9.09553C6.34878 8.91971 6.25 8.68126 6.25 8.43262ZM13.75 8.43262C13.75 8.61804 13.695 8.79929 13.592 8.95346C13.489 9.10764 13.3426 9.2278 13.1713 9.29875C13 9.36971 12.8115 9.38828 12.6296 9.3521C12.4477 9.31593 12.2807 9.22664 12.1496 9.09553C12.0185 8.96442 11.9292 8.79737 11.893 8.61551C11.8568 8.43366 11.8754 8.24516 11.9464 8.07385C12.0173 7.90255 12.1375 7.75613 12.2917 7.65311C12.4458 7.5501 12.6271 7.49512 12.8125 7.49512C13.0611 7.49512 13.2996 7.59389 13.4754 7.7697C13.6512 7.94552 13.75 8.18398 13.75 8.43262ZM13.6664 12.1826C12.8625 13.5725 11.5258 14.3701 10 14.3701C8.47422 14.3701 7.13829 13.5732 6.33438 12.1826C6.28916 12.1115 6.25879 12.0319 6.24511 11.9488C6.23143 11.8656 6.23472 11.7805 6.25477 11.6986C6.27483 11.6168 6.31123 11.5398 6.36181 11.4723C6.41238 11.4049 6.47607 11.3484 6.54905 11.3062C6.62203 11.264 6.70278 11.237 6.78646 11.2269C6.87014 11.2167 6.95501 11.2236 7.03596 11.2471C7.11692 11.2706 7.19229 11.3102 7.25753 11.3635C7.32278 11.4169 7.37656 11.4829 7.41563 11.5576C7.99922 12.5662 8.91641 13.1201 10 13.1201C11.0836 13.1201 12.0008 12.5654 12.5836 11.5576C12.6665 11.414 12.803 11.3092 12.9631 11.2663C13.1233 11.2234 13.2939 11.2458 13.4375 11.3287C13.5811 11.4116 13.6859 11.5481 13.7288 11.7083C13.7717 11.8684 13.7493 12.039 13.6664 12.1826Z" fill="#C1C1C1"/>
</svg>
